<svg xmlns="http://www.w3.org/2000/svg" xmlns:svgjs="http://svgjs.dev/svgjs" xmlns:xlink="http://www.w3.org/1999/xlink" width="800" height="800" version="1.1" viewBox="0 0 800 800"><g fill="none" stroke="hsla(0, 0%, 100%, 1.00)" stroke-width="3.5"><rect width="200" height="8.579" x="-100" y="-4.289" fill="hsla(0, 0%, 100%, 1.00)" stroke="none" rx="4.289"/><rect width="8.579" height="200" x="-4.289" y="-100" fill="hsla(0, 0%, 100%, 1.00)" stroke="none" rx="4.289"/><rect width="200" height="8.579" x="300" y="-4.289" fill="hsla(0, 0%, 100%, 1.00)" stroke="none" rx="4.289"/><rect width="8.579" height="200" x="395.711" y="-100" fill="hsla(0, 0%, 100%, 1.00)" stroke="none" rx="4.289"/><rect width="200" height="8.579" x="700" y="-4.289" fill="hsla(0, 0%, 100%, 1.00)" stroke="none" rx="4.289"/><rect width="8.579" height="200" x="795.711" y="-100" fill="hsla(0, 0%, 100%, 1.00)" stroke="none" rx="4.289"/><rect width="200" height="8.579" x="-100" y="395.711" fill="hsla(0, 0%, 100%, 1.00)" stroke="none" rx="4.289"/><rect width="8.579" height="200" x="-4.289" y="300" fill="hsla(0, 0%, 100%, 1.00)" stroke="none" rx="4.289"/><rect width="200" height="8.579" x="300" y="395.711" fill="hsla(0, 0%, 100%, 1.00)" stroke="none" rx="4.289"/><rect width="8.579" height="200" x="395.711" y="300" fill="hsla(0, 0%, 100%, 1.00)" stroke="none" rx="4.289"/><rect width="200" height="8.579" x="700" y="395.711" fill="hsla(0, 0%, 100%, 1.00)" stroke="none" rx="4.289"/><rect width="8.579" height="200" x="795.711" y="300" fill="hsla(0, 0%, 100%, 1.00)" stroke="none" rx="4.289"/><rect width="200" height="8.579" x="-100" y="795.711" fill="hsla(0, 0%, 100%, 1.00)" stroke="none" rx="4.289"/><rect width="8.579" height="200" x="-4.289" y="700" fill="hsla(0, 0%, 100%, 1.00)" stroke="none" rx="4.289"/><rect width="200" height="8.579" x="300" y="795.711" fill="hsla(0, 0%, 100%, 1.00)" stroke="none" rx="4.289"/><rect width="8.579" height="200" x="395.711" y="700" fill="hsla(0, 0%, 100%, 1.00)" stroke="none" rx="4.289"/><rect width="200" height="8.579" x="700" y="795.711" fill="hsla(0, 0%, 100%, 1.00)" stroke="none" rx="4.289"/><rect width="8.579" height="200" x="795.711" y="700" fill="hsla(0, 0%, 100%, 1.00)" stroke="none" rx="4.289"/></g></svg>